<svg xmlns="http://www.w3.org/2000/svg" viewBox="0 0 205 30.64"><title>randstad logo</title><path class="a" transform="translate(0 -0.18)" d="M 15.95 30.32 H 20.5 V 18.87 a 2.26 2.26 0 0 0 -0.67 -1.62 l -6.75 -6.75 a 2.25 2.25 0 0 0 -1.62 -0.67 H 0 v 4.56 H 12.53 a 3.42 3.42 0 0 1 3.42 3.42 Z"/><path class="a" transform="translate(0 -0.18)" d="M 27.28 30.32 H 22.72 V 18.87 a 2.26 2.26 0 0 1 0.67 -1.62 l 6.75 -6.75 a 2.25 2.25 0 0 1 1.62 -0.67 H 43.22 v 4.56 H 30.69 a 3.42 3.42 0 0 0 -3.42 3.42 Z"/><path class="a" transform="translate(0 -0.18)" d="M 63.8 9.82 h 3.52 V 13 h 0.08 a 6.24 6.24 0 0 1 5.34 -3.66 a 10.69 10.69 0 0 1 2.49 0.28 V 13 a 5.6 5.6 0 0 0 -2.09 -0.36 c -3.38 0 -5.59 3.22 -5.59 8.37 v 9.33 H 63.8 Z"/><path class="a" transform="translate(0 -0.18)" d="M 179.24 22.35 c 0 3.09 -2 5.44 -5.7 5.44 c -1.72 0 -3.81 -1.18 -3.81 -3.36 c 0 -3.65 5.06 -4 7.1 -4 c 0.8 0 1.6 0.08 2.41 0.08 Z m -11 -7.87 a 9.52 9.52 0 0 1 5.94 -2.13 c 3.77 0 5.05 1.84 5.05 5.38 c -1.48 -0.08 -2.53 -0.08 -4 -0.08 c -3.89 0 -9.52 1.6 -9.52 6.75 c 0 4.5 3.1 6.42 7.51 6.42 a 7.6 7.6 0 0 0 6.34 -3.11 h 0.08 v 2.61 H 183 V 17.79 c 0 -5.6 -2.36 -8.47 -8.21 -8.47 A 13.1 13.1 0 0 0 168 11.24 Z"/><path class="a" transform="translate(0 -0.18)" d="M 88 22.35 c 0 3.09 -2 5.44 -5.7 5.44 c -1.73 0 -3.81 -1.18 -3.81 -3.36 c 0 -3.65 5.06 -4 7.1 -4 c 0.8 0 1.6 0.08 2.41 0.08 Z M 77 14.48 A 9.52 9.52 0 0 1 83 12.35 c 3.77 0 5.06 1.84 5.06 5.38 c -1.48 -0.08 -2.53 -0.08 -4 -0.08 c -3.89 0 -9.52 1.6 -9.52 6.75 c 0 4.5 3.1 6.42 7.51 6.42 a 7.6 7.6 0 0 0 6.34 -3.11 h 0.08 v 2.61 H 91.8 V 17.79 c 0 -5.6 -2.36 -8.47 -8.21 -8.47 a 13.1 13.1 0 0 0 -6.74 1.92 Z"/><path class="a" transform="translate(0 -0.18)" d="M 94.88 9.82 h 3.64 V 13 h 0.08 a 7.39 7.39 0 0 1 6.73 -3.72 c 5.31 0 7.66 3.28 7.66 8.79 V 30.32 h -3.76 V 19.69 c 0 -4.79 -1 -7.13 -4.35 -7.33 c -4.31 0 -6.24 3.47 -6.24 8.48 v 9.48 H 94.88 Z"/><path class="a" transform="translate(0 -0.18)" d="M 137.55 26.33 a 10.06 10.06 0 0 0 4.7 1.45 c 1.72 0 3.85 -0.73 3.85 -2.95 c 0 -3.76 -8.87 -3.43 -8.87 -9.21 c 0 -4.27 3.18 -6.31 7.23 -6.31 a 15.49 15.49 0 0 1 4.7 0.81 l -0.32 3.27 a 11 11 0 0 0 -4 -1.05 c -1.92 0 -3.61 0.81 -3.61 2.51 c 0 4.2 8.87 3 8.87 9.58 c 0 4.39 -3.5 6.39 -7.15 6.39 a 11.84 11.84 0 0 1 -5.62 -1.12 Z"/><path class="a" transform="translate(0 -0.18)" d="M 164.48 12.85 h -5.43 V 24.11 c 0 2.38 1.45 3.67 3.17 3.67 a 4.65 4.65 0 0 0 2.57 -0.73 v 3.2 a 11.94 11.94 0 0 1 -3.21 0.56 c -3.89 0 -6.29 -1.83 -6.29 -5.94 v -12 h -4.62 v -3 h 4.62 V 5.08 l 3.76 -1.2 V 9.82 h 5.43 Z"/><path class="a" transform="translate(0 -0.18)" d="M 189.56 20 c -0.08 -3.76 1.53 -7.64 5.62 -7.64 s 6.06 3.92 6.06 7.76 c 0 3.43 -1.77 7.68 -6 7.68 C 191.17 27.79 189.48 23.22 189.56 20 Z M 201.4 30.32 H 205 V 0.18 h -3.76 V 12.6 h -0.08 C 200 10.72 198 9.32 194.38 9.32 c -5.94 0 -8.84 4.85 -8.84 10.37 s 2.61 11.13 8.8 11.13 a 8.22 8.22 0 0 0 7 -3.36 h 0.08 Z"/><path class="a" transform="translate(0 -0.18)" d="M 119.57 20 c -0.08 -3.76 1.53 -7.64 5.62 -7.64 s 6.06 3.92 6.06 7.76 c 0 3.43 -1.77 7.68 -6 7.68 C 121.17 27.79 119.48 23.22 119.57 20 Z m 11.84 10.33 H 135 V 0.18 h -3.76 V 12.6 h -0.08 C 130 10.72 128 9.32 124.38 9.32 c -5.94 0 -8.84 4.85 -8.84 10.37 s 2.61 11.13 8.8 11.13 a 8.22 8.22 0 0 0 7 -3.36 h 0.08 Z"/></svg>